<svg width="13" height="13" viewBox="0 0 13 13" fill="none" stroke="#ffffff" xmlns="http://www.w3.org/2000/svg">
<path d="M0.83333 7.15209L10.1417 7.15209L6.075 11.2188C5.75 11.5438 5.75 12.0771 6.075 12.4021C6.4 12.7271 6.925 12.7271 7.25 12.4021L12.7417 6.91043C13.0667 6.58543 13.0667 6.06043 12.7417 5.73543L7.25 0.243759C6.925 -0.0812415 6.4 -0.0812415 6.075 0.243758C5.75 0.568758 5.75 1.09376 6.075 1.41876L10.1417 5.48543L0.83333 5.48543C0.374996 5.48543 -3.68174e-06 5.86043 -3.72181e-06 6.31876C-3.76188e-06 6.77709 0.374996 7.15209 0.83333 7.15209Z" fill="#252525"/>
</svg>
